<svg xmlns="http://www.w3.org/2000/svg" width="26" height="26" viewBox="0 0 26 26">
  <g id="Grupo_4417" data-name="Grupo 4417" transform="translate(-1806 -32)">
    <path id="calendar_month_FILL0_wght400_GRAD0_opsz48" d="M16.161,17.548a1.109,1.109,0,1,1,.8-.325A1.092,1.092,0,0,1,16.161,17.548Zm-4.516,0a1.109,1.109,0,1,1,.8-.325A1.092,1.092,0,0,1,11.645,17.548Zm9.032,0a1.109,1.109,0,1,1,.8-.325A1.092,1.092,0,0,1,20.677,17.548Zm-4.516,4.516a1.109,1.109,0,1,1,.8-.325A1.092,1.092,0,0,1,16.161,22.064Zm-4.516,0a1.109,1.109,0,1,1,.8-.325A1.092,1.092,0,0,1,11.645,22.064Zm9.032,0a1.109,1.109,0,1,1,.8-.325A1.092,1.092,0,0,1,20.677,22.064ZM7.693,26.58A1.736,1.736,0,0,1,6,24.887V7.387A1.736,1.736,0,0,1,7.693,5.694H9.528V4h1.835V5.694h9.6V4h1.835V5.694h1.835a1.736,1.736,0,0,1,1.693,1.694v17.5a1.736,1.736,0,0,1-1.693,1.694Zm0-1.694H24.628V12.75H7.693V24.887Zm0-13.83H24.628V7.387H7.693Zm0,0V7.387h0Z" transform="translate(1800 28)" fill="#fff"/>
    <g id="Grupo_4403" data-name="Grupo 4403" transform="translate(1818.137 44.138)">
      <circle id="Elipse_603" data-name="Elipse 603" cx="7" cy="7" r="7" transform="translate(-0.137 -0.138)" fill="red"/>
      <g id="monetization_on_black_24dp" transform="translate(0 0)">
        <path id="Caminho_22667" data-name="Caminho 22667" d="M0,0H13.712V13.712H0Z" fill="none"/>
        <path id="Caminho_22668" data-name="Caminho 22668" d="M7.713,2a5.713,5.713,0,1,0,5.713,5.713A5.715,5.715,0,0,0,7.713,2Zm0,10.284a4.571,4.571,0,1,1,4.571-4.571A4.577,4.577,0,0,1,7.713,12.284ZM7.89,7.222c-1.011-.257-1.337-.537-1.337-.954,0-.48.451-.817,1.2-.817.788,0,1.086.377,1.108.937h.977a1.773,1.773,0,0,0-1.423-1.7V3.714H7.085V4.68A1.726,1.726,0,0,0,5.531,6.285c0,1.023.851,1.537,2.091,1.834,1.114.263,1.337.657,1.337,1.068,0,.3-.223.794-1.2.794-.914,0-1.274-.411-1.325-.937H5.451a1.853,1.853,0,0,0,1.634,1.7v.971H8.422v-.954c.868-.166,1.554-.663,1.56-1.583C9.976,7.919,8.9,7.485,7.89,7.222Z" transform="translate(-0.857 -0.857)" fill="#fff"/>
      </g>
    </g>
  </g>
</svg>
